<svg xmlns="http://www.w3.org/2000/svg" xmlns:xlink="http://www.w3.org/1999/xlink" width="21" height="25" viewBox="0 0 21 25"><defs><path id="zjo2a" d="M1773.54 3715.33c-.84 0-1.53-.68-1.53-1.51v-6.42c0-.84.69-1.52 1.53-1.52.85 0 1.53.68 1.53 1.52v6.42c0 .83-.68 1.51-1.53 1.51zm-3.91 2.33h-.68v3.25c0 .84-.69 1.52-1.53 1.52-.85 0-1.53-.68-1.53-1.52v-3.25h-2.05v3.25c0 .84-.68 1.52-1.53 1.52-.84 0-1.53-.68-1.53-1.52v-3.25h-.68c-.8 0-1.47-.45-1.8-1.1h-.18v-.44a2 2 0 0 1-.06-.48v-9.04h.06v-.02h13.14v9.97h-.17c-.2.66-.67 1.11-1.46 1.11zm1.57-11.9h-13.1a6.73 6.73 0 0 1 3.29-5.34l-1.3-2.14.63-.4 1.44 2.14a6.82 6.82 0 0 1 2.7-.56c1 0 1.9.22 2.71.6l1.3-2.06.67.29-1.21 2.2a6.7 6.7 0 0 1 2.87 5.27zm-9.36-3.67c-.4 0-.72.32-.72.7 0 .4.32.72.72.72.4 0 .72-.32.72-.71 0-.4-.33-.71-.72-.71zm6.08.04a.68.68 0 1 0 0 1.35c.37 0 .68-.3.68-.67 0-.38-.3-.68-.68-.68zm-12.27 13.2c-.94 0-1.33-.75-1.33-1.68v-6.08c0-.94.4-1.7 1.33-1.7.94 0 1.7.76 1.7 1.7v6.08a1.7 1.7 0 0 1-1.7 1.68z"/></defs><g><g opacity=".7" transform="translate(-1754 -3698)"><use fill="#888" xlink:href="#zjo2a"/></g></g></svg>