<svg xmlns="http://www.w3.org/2000/svg" xmlns:xlink="http://www.w3.org/1999/xlink" width="20" height="23" viewBox="0 0 20 23"><defs><path id="ujsoa" d="M1773.12 3767.04c-.95 1.44-2.28 3.23-3.92 3.24-1.47.02-1.85-.95-3.84-.94-1.98.01-2.4.96-3.86.95-1.65-.02-2.91-1.63-3.86-3.07-2.64-4.02-2.91-8.74-1.29-11.24a5.84 5.84 0 0 1 4.7-2.83c1.75 0 2.85.96 4.3.96 1.4 0 2.25-.96 4.27-.96a5.7 5.7 0 0 1 4.3 2.27c-3.78 2.07-3.17 7.47.65 8.9a16.03 16.03 0 0 1-1.45 2.72zm-5.03-15.5c-.79 1.01-2.14 1.8-3.45 1.76-.24-1.3.37-2.64 1.12-3.55a5.3 5.3 0 0 1 3.42-1.84 4.9 4.9 0 0 1-1.1 3.64z"/></defs><g><g opacity=".7" transform="translate(-1755 -3748)"><use fill="#888" xlink:href="#ujsoa"/></g></g></svg>