<svg xmlns="http://www.w3.org/2000/svg" xmlns:xlink="http://www.w3.org/1999/xlink" width="14" height="14" viewBox="0 0 14 14"><defs><path id="taita" d="M351.08 2224.02h2.09v-.47c0-.34.27-.61.61-.61.34 0 .7.27.7.61v.47h3.03v-.47c0-.34.36-.61.7-.61.34 0 .62.27.62.61v.47h2.09c.68 0 1.23.55 1.23 1.23v10.41c0 .68-.55 1.23-1.23 1.23h-9.84c-.68 0-1.23-.55-1.23-1.23v-10.4c0-.69.55-1.24 1.23-1.24zm-.17 2.38v.86h10.17v-.86c0-.88-.72-1.6-1.6-1.6h-.65v.41c0 .34-.28.62-.62.62-.34 0-.7-.28-.7-.62v-.4h-3.03v.4c0 .34-.36.62-.7.62a.62.62 0 0 1-.61-.62v-.4h-.66c-.88 0-1.6.7-1.6 1.59zm0 7.97c0 .88.72 1.6 1.6 1.6h6.97c.88 0 1.6-.72 1.6-1.6v-6.1h-10.17zm4.94-4.59h.9v4.65h-.9v-2.7h-.89v-.92h.9z"/></defs><g><g transform="translate(-349 -2223)"><use fill="#888" xlink:href="#taita"/></g></g></svg>