<svg xmlns="http://www.w3.org/2000/svg" xmlns:xlink="http://www.w3.org/1999/xlink" width="8" height="13" viewBox="0 0 8 13"><defs><path id="td98a" d="M1506.85 3722.95h-5.7c-.58 0-1.05-.47-1.05-1.05v-10.8c0-.58.47-1.05 1.05-1.05h5.7c.58 0 1.05.47 1.05 1.05v10.8c0 .58-.47 1.05-1.05 1.05zm-5.7-12a.15.15 0 0 0-.15.15v10.8c0 .08.07.15.15.15h5.7c.08 0 .15-.07.15-.15v-10.8a.15.15 0 0 0-.15-.15zm4.8 6.6h-3.9a.45.45 0 0 1-.45-.45v-4.8c0-.25.2-.45.45-.45h3.9c.25 0 .45.2.45.45v4.8c0 .25-.2.45-.45.45zm-3.45-.9h3v-3.9h-3zm1.5 4.5a.9.9 0 1 1 0-1.8.9.9 0 0 1 0 1.8z"/></defs><g><g transform="translate(-1500 -3710)"><use fill="#fff" xlink:href="#td98a"/></g></g></svg>