<svg xmlns="http://www.w3.org/2000/svg" xmlns:xlink="http://www.w3.org/1999/xlink" width="19" height="19" viewBox="0 0 19 19"><defs><path id="hr4wa" d="M1695.7 3629.88a6.84 6.84 0 0 1 5.92 10.23l5.73 5.74a1.78 1.78 0 0 1 0 2.52c-.7.7-1.82.7-2.52 0l-5.73-5.74a6.84 6.84 0 1 1-3.4-12.76zm5.23 11.22c-.26.3-.54.59-.84.84l5.58 5.6a.59.59 0 0 0 .84 0 .6.6 0 0 0 0-.85zm-5.23-10.04a5.65 5.65 0 1 0 .02 11.3 5.65 5.65 0 0 0-.02-11.3zm3.2 2.7a.6.6 0 1 1-.83.85 3.35 3.35 0 0 0-4.73 0 .6.6 0 0 1-.84-.84 4.54 4.54 0 0 1 6.4 0z"/></defs><g><g transform="translate(-1689 -3630)"><use fill="#fff" xlink:href="#hr4wa"/></g></g></svg>